<mxfile host="app.diagrams.net" modified="2021-12-15T17:36:01.310Z" agent="5.0 (Windows NT 10.0; Win64; x64) AppleWebKit/537.36 (KHTML, like Gecko) Chrome/96.0.4664.93 Safari/537.36" etag="B9rsAbcAjeOD4Z07XaeG" version="15.9.6" type="github">
  <diagram name="Page-1" id="edf60f1a-56cd-e834-aa8a-f176f3a09ee4">
    <mxGraphModel dx="964" dy="500" grid="1" gridSize="10" guides="1" tooltips="1" connect="1" arrows="1" fold="1" page="1" pageScale="1" pageWidth="1100" pageHeight="850" background="none" math="0" shadow="0">
      <root>
        <mxCell id="0" />
        <mxCell id="1" parent="0" />
        <mxCell id="60e70716793133e9-32" style="edgeStyle=orthogonalEdgeStyle;rounded=0;html=1;labelBackgroundColor=none;startSize=5;endArrow=classicThin;endFill=1;endSize=5;jettySize=auto;orthogonalLoop=1;strokeWidth=1;fontFamily=Verdana;fontSize=8" parent="1" source="60e70716793133e9-4" target="60e70716793133e9-5" edge="1">
          <mxGeometry relative="1" as="geometry" />
        </mxCell>
        <mxCell id="60e70716793133e9-4" value="Data &lt;span style=&quot;font-weight: normal&quot;&gt;- About 9000 obseravation from the last 13 years&amp;nbsp;&lt;/span&gt;" style="rounded=0;whiteSpace=wrap;html=1;shadow=1;labelBackgroundColor=default;strokeWidth=1;fontFamily=Verdana;fontSize=10;align=center;glass=1;fontStyle=1" parent="1" vertex="1">
          <mxGeometry x="180" y="260" width="120" height="60" as="geometry" />
        </mxCell>
        <mxCell id="60e70716793133e9-33" value="Yes" style="rounded=0;html=1;labelBackgroundColor=none;startSize=5;endArrow=classicThin;endFill=1;endSize=5;jettySize=auto;orthogonalLoop=1;strokeWidth=1;fontFamily=Verdana;fontSize=8;entryX=0;entryY=0.5;entryDx=0;entryDy=0;exitX=1;exitY=0.5;exitDx=0;exitDy=0;" parent="1" source="60e70716793133e9-9" target="60e70716793133e9-7" edge="1">
          <mxGeometry x="-0.7778" y="10" relative="1" as="geometry">
            <mxPoint as="offset" />
            <mxPoint x="300.0000000000002" y="501" as="sourcePoint" />
            <mxPoint x="405.0000000000002" y="486" as="targetPoint" />
          </mxGeometry>
        </mxCell>
        <mxCell id="60e70716793133e9-37" value="No" style="edgeStyle=orthogonalEdgeStyle;rounded=0;html=1;labelBackgroundColor=none;startSize=5;endArrow=classicThin;endFill=1;endSize=5;jettySize=auto;orthogonalLoop=1;strokeWidth=1;fontFamily=Verdana;fontSize=8" parent="1" source="60e70716793133e9-5" target="60e70716793133e9-9" edge="1">
          <mxGeometry x="-0.5" y="10" relative="1" as="geometry">
            <mxPoint as="offset" />
          </mxGeometry>
        </mxCell>
        <mxCell id="60e70716793133e9-5" value="&lt;b style=&quot;font-size: 10px&quot;&gt;Flat File &lt;/b&gt;-done" style="rhombus;whiteSpace=wrap;html=1;rounded=0;shadow=1;labelBackgroundColor=none;strokeWidth=1;fontFamily=Verdana;fontSize=10;align=center;" parent="1" vertex="1">
          <mxGeometry x="180" y="360" width="120" height="60" as="geometry" />
        </mxCell>
        <mxCell id="60e70716793133e9-7" value="Overveiw ETL" style="rhombus;whiteSpace=wrap;html=1;rounded=0;shadow=1;labelBackgroundColor=none;strokeWidth=1;fontFamily=Verdana;fontSize=8;align=center;" parent="1" vertex="1">
          <mxGeometry x="380" y="460" width="100" height="60" as="geometry" />
        </mxCell>
        <mxCell id="60e70716793133e9-38" style="edgeStyle=orthogonalEdgeStyle;rounded=0;html=1;labelBackgroundColor=none;startSize=5;endArrow=classicThin;endFill=1;endSize=5;jettySize=auto;orthogonalLoop=1;strokeWidth=1;fontFamily=Verdana;fontSize=8" parent="1" source="60e70716793133e9-9" target="60e70716793133e9-11" edge="1">
          <mxGeometry relative="1" as="geometry" />
        </mxCell>
        <mxCell id="60e70716793133e9-9" value="&lt;b&gt;ETL - &lt;/b&gt;Done" style="whiteSpace=wrap;html=1;rounded=0;shadow=1;labelBackgroundColor=none;strokeWidth=1;fontFamily=Verdana;fontSize=8;align=center;" parent="1" vertex="1">
          <mxGeometry x="180" y="470" width="120" height="40" as="geometry" />
        </mxCell>
        <mxCell id="60e70716793133e9-41" style="edgeStyle=orthogonalEdgeStyle;rounded=0;html=1;labelBackgroundColor=none;startSize=5;endArrow=classicThin;endFill=1;endSize=5;jettySize=auto;orthogonalLoop=1;strokeWidth=1;fontFamily=Verdana;fontSize=8" parent="1" source="60e70716793133e9-11" target="60e70716793133e9-13" edge="1">
          <mxGeometry relative="1" as="geometry" />
        </mxCell>
        <mxCell id="60e70716793133e9-11" value="&lt;b&gt;Feature Engeeining&lt;/b&gt;" style="whiteSpace=wrap;html=1;rounded=0;shadow=1;labelBackgroundColor=none;strokeWidth=1;fontFamily=Verdana;fontSize=8;align=center;spacing=6;" parent="1" vertex="1">
          <mxGeometry x="180" y="540" width="120" height="40" as="geometry" />
        </mxCell>
        <mxCell id="ecz7DTulXrqKq4o4k-UH-13" style="edgeStyle=none;rounded=0;orthogonalLoop=1;jettySize=auto;html=1;exitX=0.5;exitY=1;exitDx=0;exitDy=0;entryX=0.5;entryY=0;entryDx=0;entryDy=0;fontSize=10;" edge="1" parent="1" source="60e70716793133e9-13" target="60e70716793133e9-15">
          <mxGeometry relative="1" as="geometry" />
        </mxCell>
        <mxCell id="60e70716793133e9-13" value="&lt;b&gt;Models&lt;/b&gt;" style="whiteSpace=wrap;html=1;rounded=0;shadow=1;labelBackgroundColor=none;strokeWidth=1;fontFamily=Verdana;fontSize=8;align=center;" parent="1" vertex="1">
          <mxGeometry x="180" y="610" width="120" height="40" as="geometry" />
        </mxCell>
        <mxCell id="ecz7DTulXrqKq4o4k-UH-16" style="edgeStyle=none;rounded=0;orthogonalLoop=1;jettySize=auto;html=1;exitX=0.5;exitY=1;exitDx=0;exitDy=0;entryX=0.5;entryY=0;entryDx=0;entryDy=0;entryPerimeter=0;fontSize=10;" edge="1" parent="1" source="60e70716793133e9-15" target="60e70716793133e9-30">
          <mxGeometry relative="1" as="geometry" />
        </mxCell>
        <mxCell id="60e70716793133e9-15" value="&lt;b&gt;Fine Tuning&lt;/b&gt;" style="whiteSpace=wrap;html=1;rounded=0;shadow=1;labelBackgroundColor=none;strokeWidth=1;fontFamily=Verdana;fontSize=8;align=center;" parent="1" vertex="1">
          <mxGeometry x="180" y="680" width="120" height="40" as="geometry" />
        </mxCell>
        <mxCell id="60e70716793133e9-30" value="End" style="strokeWidth=1;html=1;shape=mxgraph.flowchart.terminator;whiteSpace=wrap;rounded=0;shadow=1;labelBackgroundColor=none;fontFamily=Verdana;fontSize=8;align=center;fillColor=#f8cecc;strokeColor=#b85450;" parent="1" vertex="1">
          <mxGeometry x="210" y="760" width="60" height="30" as="geometry" />
        </mxCell>
        <mxCell id="ecz7DTulXrqKq4o4k-UH-5" value="" style="edgeStyle=orthogonalEdgeStyle;rounded=0;orthogonalLoop=1;jettySize=auto;html=1;fontSize=15;" edge="1" parent="1" source="ecz7DTulXrqKq4o4k-UH-2" target="ecz7DTulXrqKq4o4k-UH-3">
          <mxGeometry relative="1" as="geometry" />
        </mxCell>
        <mxCell id="ecz7DTulXrqKq4o4k-UH-2" value="Data Science Project" style="text;strokeColor=none;fillColor=none;html=1;fontSize=22;fontStyle=1;verticalAlign=middle;align=left;glass=1;labelBackgroundColor=#FFFFFF;" vertex="1" parent="1">
          <mxGeometry x="80" y="9" width="100" height="40" as="geometry" />
        </mxCell>
        <mxCell id="ecz7DTulXrqKq4o4k-UH-3" value="&lt;font style=&quot;font-size: 21px&quot;&gt;&lt;span style=&quot;font-family: &amp;quot;verdana&amp;quot;&quot;&gt;Global Activism&lt;/span&gt;&lt;span style=&quot;font-family: &amp;quot;verdana&amp;quot;&quot;&gt;&lt;font style=&quot;font-size: 21px&quot;&gt; &lt;/font&gt;&lt;/span&gt;&lt;span style=&quot;font-family: &amp;quot;verdana&amp;quot;&quot;&gt;in Capital Markets Worldwide&lt;/span&gt;&lt;/font&gt;" style="text;strokeColor=none;fillColor=none;html=1;fontSize=24;fontStyle=1;verticalAlign=middle;align=left;glass=1;labelBackgroundColor=#FFFFFF;" vertex="1" parent="1">
          <mxGeometry x="80" y="49" width="100" height="40" as="geometry" />
        </mxCell>
        <mxCell id="ecz7DTulXrqKq4o4k-UH-4" value="Hundreds activist campigns are being open every year&lt;br style=&quot;font-size: 15px&quot;&gt;&lt;div style=&quot;font-size: 15px&quot;&gt;Some of them are a succes, some are a faliure and few are prominantly successful&lt;/div&gt;&lt;div style=&quot;font-size: 15px&quot;&gt;My target is to find those successful campigns, and predict whether a new campign will be worth investment or not&lt;/div&gt;&lt;div style=&quot;font-size: 15px&quot;&gt;&lt;br&gt;&lt;/div&gt;&lt;div style=&quot;font-size: 15px&quot;&gt;Langueges: SQL, R, Python (I want to focus on python)&lt;/div&gt;&lt;div style=&quot;font-size: 15px&quot;&gt;Main Pacages: Pandas, NumPy, seaborn. scikit learn&lt;/div&gt;&lt;div style=&quot;font-size: 15px&quot;&gt;Main platformes: Jupiter notebook, SQL serever&lt;/div&gt;&lt;br&gt;&lt;div style=&quot;font-size: 15px&quot;&gt;&lt;br&gt;&lt;/div&gt;" style="text;strokeColor=none;fillColor=none;html=1;fontSize=15;fontStyle=0;verticalAlign=middle;align=left;glass=1;labelBackgroundColor=#FFFFFF;" vertex="1" parent="1">
          <mxGeometry x="80" y="117" width="100" height="40" as="geometry" />
        </mxCell>
      </root>
    </mxGraphModel>
  </diagram>
</mxfile>
